<?xml version="1.0" standalone="no"?><!DOCTYPE svg PUBLIC "-//W3C//DTD SVG 1.1//EN" "http://www.w3.org/Graphics/SVG/1.1/DTD/svg11.dtd"><svg t="1747541719773" class="icon" viewBox="0 0 1024 1024" version="1.1" xmlns="http://www.w3.org/2000/svg" p-id="3956" xmlns:xlink="http://www.w3.org/1999/xlink" width="200" height="200"><path d="M800.2 128H224.3c-53 0-96 43-96 96v575.9c0 53 43 96 96 96h575.9c53 0 96-43 96-96V224c0-53-43-96-96-96z m-54.8 520.3c-9.4 9.5-24.7 9.5-34.1 0L512.6 448.9 314 648.3c-9.4 9.5-24.7 9.5-34.1 0-9.4-9.5-9.4-24.8 0-34.3l214.5-215.3c5-5 11.7-7.2 18.3-6.9 6.6-0.3 13.3 1.8 18.3 6.9L745.4 614c9.5 9.5 9.5 24.8 0 34.3z" fill="#0C0101" p-id="3957"></path></svg>